<mxfile host="65bd71144e">
    <diagram id="c70Dwhuq2tkoNTt7R3Fm" name="Page-1">
        <mxGraphModel dx="1941" dy="889" grid="1" gridSize="10" guides="1" tooltips="1" connect="1" arrows="1" fold="1" page="1" pageScale="1" pageWidth="850" pageHeight="1100" math="0" shadow="0">
            <root>
                <mxCell id="0"/>
                <mxCell id="1" parent="0"/>
                <mxCell id="SYkWQKS7MCTW5YF8ifYd-2" value="" style="rounded=0;whiteSpace=wrap;html=1;movable=0;resizable=0;rotatable=0;deletable=0;editable=0;locked=1;connectable=0;" parent="1" vertex="1">
                    <mxGeometry x="90" y="40" width="740" height="960" as="geometry"/>
                </mxCell>
                <mxCell id="SYkWQKS7MCTW5YF8ifYd-1" value="Client" style="shape=umlActor;verticalLabelPosition=bottom;verticalAlign=top;html=1;outlineConnect=0;" parent="1" vertex="1">
                    <mxGeometry y="370" width="70" height="190" as="geometry"/>
                </mxCell>
                <mxCell id="SYkWQKS7MCTW5YF8ifYd-3" value="Manage Profile" style="ellipse;whiteSpace=wrap;html=1;fontFamily=Times New Roman;fontSize=18;" parent="1" vertex="1">
                    <mxGeometry x="120" y="150" width="230" height="60" as="geometry"/>
                </mxCell>
                <mxCell id="SYkWQKS7MCTW5YF8ifYd-4" value="Manage Quotes" style="ellipse;whiteSpace=wrap;html=1;fontFamily=Times New Roman;fontSize=18;" parent="1" vertex="1">
                    <mxGeometry x="130" y="340" width="230" height="60" as="geometry"/>
                </mxCell>
                <mxCell id="SYkWQKS7MCTW5YF8ifYd-5" value="View shipments Repository" style="ellipse;whiteSpace=wrap;html=1;fontFamily=Times New Roman;fontSize=18;" parent="1" vertex="1">
                    <mxGeometry x="120" y="930" width="240" height="50" as="geometry"/>
                </mxCell>
                <mxCell id="84" style="edgeStyle=none;html=1;exitX=0;exitY=0.5;exitDx=0;exitDy=0;entryX=0.996;entryY=0.35;entryDx=0;entryDy=0;entryPerimeter=0;" parent="1" source="SYkWQKS7MCTW5YF8ifYd-7" target="SYkWQKS7MCTW5YF8ifYd-3" edge="1">
                    <mxGeometry relative="1" as="geometry"/>
                </mxCell>
                <mxCell id="SYkWQKS7MCTW5YF8ifYd-7" value="Update Profile" style="ellipse;whiteSpace=wrap;html=1;fontFamily=Times New Roman;fontSize=18;" parent="1" vertex="1">
                    <mxGeometry x="570" y="140" width="160" height="40" as="geometry"/>
                </mxCell>
                <mxCell id="59" style="edgeStyle=none;html=1;exitX=0;exitY=0.5;exitDx=0;exitDy=0;" parent="1" source="SYkWQKS7MCTW5YF8ifYd-8" edge="1">
                    <mxGeometry relative="1" as="geometry">
                        <mxPoint x="340" y="160" as="targetPoint"/>
                    </mxGeometry>
                </mxCell>
                <mxCell id="SYkWQKS7MCTW5YF8ifYd-8" value="View Profile" style="ellipse;whiteSpace=wrap;html=1;fontFamily=Times New Roman;fontSize=18;" parent="1" vertex="1">
                    <mxGeometry x="510" y="90" width="160" height="40" as="geometry"/>
                </mxCell>
                <mxCell id="85" style="edgeStyle=none;html=1;exitX=0;exitY=0.5;exitDx=0;exitDy=0;" parent="1" source="SYkWQKS7MCTW5YF8ifYd-9" edge="1">
                    <mxGeometry relative="1" as="geometry">
                        <mxPoint x="350" y="180" as="targetPoint"/>
                        <Array as="points">
                            <mxPoint x="360" y="180"/>
                        </Array>
                    </mxGeometry>
                </mxCell>
                <mxCell id="SYkWQKS7MCTW5YF8ifYd-9" value="Update Password" style="ellipse;whiteSpace=wrap;html=1;fontFamily=Times New Roman;fontSize=18;" parent="1" vertex="1">
                    <mxGeometry x="550" y="200" width="160" height="40" as="geometry"/>
                </mxCell>
                <mxCell id="87" style="edgeStyle=none;html=1;exitX=0;exitY=0.5;exitDx=0;exitDy=0;fillColor=none;" parent="1" source="SYkWQKS7MCTW5YF8ifYd-15" edge="1">
                    <mxGeometry relative="1" as="geometry">
                        <mxPoint x="360" y="360" as="targetPoint"/>
                    </mxGeometry>
                </mxCell>
                <mxCell id="SYkWQKS7MCTW5YF8ifYd-15" value="Request Quote" style="ellipse;whiteSpace=wrap;html=1;fontFamily=Times New Roman;fontSize=18;" parent="1" vertex="1">
                    <mxGeometry x="430" y="310" width="180" height="40" as="geometry"/>
                </mxCell>
                <mxCell id="89" style="edgeStyle=none;html=1;exitX=0;exitY=0.5;exitDx=0;exitDy=0;" parent="1" source="SYkWQKS7MCTW5YF8ifYd-16" edge="1">
                    <mxGeometry relative="1" as="geometry">
                        <mxPoint x="360" y="380" as="targetPoint"/>
                    </mxGeometry>
                </mxCell>
                <mxCell id="SYkWQKS7MCTW5YF8ifYd-16" value="View All Quotes" style="ellipse;whiteSpace=wrap;html=1;fontFamily=Times New Roman;fontSize=18;" parent="1" vertex="1">
                    <mxGeometry x="400" y="385" width="160" height="40" as="geometry"/>
                </mxCell>
                <mxCell id="SYkWQKS7MCTW5YF8ifYd-17" value="Search Quote" style="ellipse;whiteSpace=wrap;html=1;fontFamily=Times New Roman;fontSize=18;" parent="1" vertex="1">
                    <mxGeometry x="640" y="400" width="160" height="40" as="geometry"/>
                </mxCell>
                <mxCell id="61" style="edgeStyle=none;html=1;exitX=0;exitY=0.5;exitDx=0;exitDy=0;entryX=1;entryY=0.5;entryDx=0;entryDy=0;dashed=1;" parent="1" source="3" target="SYkWQKS7MCTW5YF8ifYd-5" edge="1">
                    <mxGeometry relative="1" as="geometry"/>
                </mxCell>
                <mxCell id="3" value="Search Shipment By Id" style="ellipse;whiteSpace=wrap;html=1;fontFamily=Times New Roman;fontSize=18;" parent="1" vertex="1">
                    <mxGeometry x="540" y="920" width="220" height="70" as="geometry"/>
                </mxCell>
                <mxCell id="22" value="&lt;span style=&quot;color: rgb(0, 0, 0);&quot;&gt;&amp;lt;&amp;lt;Extends&amp;gt;&amp;gt;&lt;/span&gt;" style="edgeLabel;html=1;align=center;verticalAlign=middle;resizable=0;points=[];" parent="1" vertex="1" connectable="0">
                    <mxGeometry x="439.99939298754293" y="550.0001170819492" as="geometry">
                        <mxPoint x="165" y="-140" as="offset"/>
                    </mxGeometry>
                </mxCell>
                <mxCell id="29" value="Manage Documents" style="ellipse;whiteSpace=wrap;html=1;fontFamily=Times New Roman;fontSize=18;" parent="1" vertex="1">
                    <mxGeometry x="130" y="660" width="250" height="60" as="geometry"/>
                </mxCell>
                <mxCell id="64" style="edgeStyle=none;html=1;exitX=0;exitY=0.5;exitDx=0;exitDy=0;" parent="1" edge="1">
                    <mxGeometry relative="1" as="geometry">
                        <mxPoint x="380" y="520" as="targetPoint"/>
                        <mxPoint x="470" y="555" as="sourcePoint"/>
                    </mxGeometry>
                </mxCell>
                <mxCell id="37" value="Client&#39;s use case diagram" style="text;html=1;align=center;verticalAlign=middle;resizable=0;points=[];autosize=1;strokeColor=none;fillColor=none;fontFamily=Times New Roman;fontSize=18;fontStyle=1" parent="1" vertex="1">
                    <mxGeometry x="335" y="40" width="210" height="40" as="geometry"/>
                </mxCell>
                <mxCell id="91" style="edgeStyle=none;html=1;exitX=0;exitY=0.5;exitDx=0;exitDy=0;entryX=0.971;entryY=0.3;entryDx=0;entryDy=0;entryPerimeter=0;" parent="1" source="39" target="29" edge="1">
                    <mxGeometry relative="1" as="geometry"/>
                </mxCell>
                <mxCell id="39" value="View&amp;nbsp; Documents" style="ellipse;whiteSpace=wrap;html=1;fontFamily=Times New Roman;fontSize=18;" parent="1" vertex="1">
                    <mxGeometry x="410" y="650" width="200" height="50" as="geometry"/>
                </mxCell>
                <mxCell id="40" value="Delete File" style="ellipse;whiteSpace=wrap;html=1;fontFamily=Times New Roman;fontSize=18;" parent="1" vertex="1">
                    <mxGeometry x="425" y="760" width="140" height="40" as="geometry"/>
                </mxCell>
                <mxCell id="101" style="edgeStyle=none;html=1;exitX=0;exitY=0;exitDx=0;exitDy=0;entryX=0.716;entryY=0.95;entryDx=0;entryDy=0;entryPerimeter=0;" parent="1" source="41" target="29" edge="1">
                    <mxGeometry relative="1" as="geometry">
                        <mxPoint x="310" y="750" as="targetPoint"/>
                    </mxGeometry>
                </mxCell>
                <mxCell id="41" value="&lt;font style=&quot;font-size: 15px;&quot;&gt;Download File&lt;/font&gt;" style="ellipse;whiteSpace=wrap;html=1;fontFamily=Times New Roman;fontSize=18;fontStyle=0" parent="1" vertex="1">
                    <mxGeometry x="320" y="820" width="160" height="40" as="geometry"/>
                </mxCell>
                <mxCell id="94" style="edgeStyle=none;html=1;exitX=0;exitY=0.5;exitDx=0;exitDy=0;" parent="1" edge="1">
                    <mxGeometry relative="1" as="geometry">
                        <mxPoint x="380" y="503" as="targetPoint"/>
                        <mxPoint x="450" y="490" as="sourcePoint"/>
                    </mxGeometry>
                </mxCell>
                <mxCell id="77" style="edgeStyle=none;html=1;exitX=0;exitY=0.5;exitDx=0;exitDy=0;entryX=0.969;entryY=0.675;entryDx=0;entryDy=0;entryPerimeter=0;dashed=1;strokeColor=default;" parent="1" source="SYkWQKS7MCTW5YF8ifYd-17" target="SYkWQKS7MCTW5YF8ifYd-16" edge="1">
                    <mxGeometry relative="1" as="geometry"/>
                </mxCell>
                <mxCell id="80" value="" style="endArrow=none;html=1;" parent="1" source="SYkWQKS7MCTW5YF8ifYd-1" edge="1">
                    <mxGeometry width="50" height="50" relative="1" as="geometry">
                        <mxPoint x="70" y="230" as="sourcePoint"/>
                        <mxPoint x="120" y="180" as="targetPoint"/>
                    </mxGeometry>
                </mxCell>
                <mxCell id="81" value="" style="endArrow=none;html=1;entryX=0;entryY=0.5;entryDx=0;entryDy=0;" parent="1" source="SYkWQKS7MCTW5YF8ifYd-1" target="SYkWQKS7MCTW5YF8ifYd-4" edge="1">
                    <mxGeometry width="50" height="50" relative="1" as="geometry">
                        <mxPoint x="70" y="350" as="sourcePoint"/>
                        <mxPoint x="140" y="240" as="targetPoint"/>
                    </mxGeometry>
                </mxCell>
                <mxCell id="82" value="" style="endArrow=none;html=1;" parent="1" target="29" edge="1">
                    <mxGeometry width="50" height="50" relative="1" as="geometry">
                        <mxPoint x="60" y="500" as="sourcePoint"/>
                        <mxPoint x="130" y="620" as="targetPoint"/>
                    </mxGeometry>
                </mxCell>
                <mxCell id="83" value="" style="endArrow=none;html=1;" parent="1" target="SYkWQKS7MCTW5YF8ifYd-1" edge="1">
                    <mxGeometry width="50" height="50" relative="1" as="geometry">
                        <mxPoint x="172.8469807124652" y="492.8148976052746" as="sourcePoint"/>
                        <mxPoint x="450" y="520" as="targetPoint"/>
                    </mxGeometry>
                </mxCell>
                <mxCell id="88" value="" style="endArrow=none;html=1;" parent="1" source="SYkWQKS7MCTW5YF8ifYd-5" target="SYkWQKS7MCTW5YF8ifYd-1" edge="1">
                    <mxGeometry width="50" height="50" relative="1" as="geometry">
                        <mxPoint x="170" y="920" as="sourcePoint"/>
                        <mxPoint x="60" y="530" as="targetPoint"/>
                    </mxGeometry>
                </mxCell>
                <mxCell id="90" value="&lt;span style=&quot;color: rgb(0, 0, 0);&quot;&gt;&amp;lt;&amp;lt;Extends&amp;gt;&amp;gt;&lt;/span&gt;" style="edgeLabel;html=1;align=center;verticalAlign=middle;resizable=0;points=[];" parent="1" vertex="1" connectable="0">
                    <mxGeometry x="489.99939298754293" y="630.0001170819492" as="geometry">
                        <mxPoint x="165" y="-140" as="offset"/>
                    </mxGeometry>
                </mxCell>
                <mxCell id="92" style="edgeStyle=none;html=1;exitX=0;exitY=0.5;exitDx=0;exitDy=0;" parent="1" source="40" edge="1">
                    <mxGeometry relative="1" as="geometry">
                        <mxPoint x="350" y="710" as="targetPoint"/>
                    </mxGeometry>
                </mxCell>
                <mxCell id="95" style="edgeStyle=none;html=1;entryX=1;entryY=0.5;entryDx=0;entryDy=0;dashed=1;exitX=0;exitY=0.5;exitDx=0;exitDy=0;" parent="1" source="27" edge="1">
                    <mxGeometry relative="1" as="geometry">
                        <mxPoint x="680" y="545" as="sourcePoint"/>
                        <mxPoint x="610" y="490" as="targetPoint"/>
                    </mxGeometry>
                </mxCell>
                <mxCell id="100" value="&amp;lt;&amp;lt;Extends&amp;gt;&amp;gt;" style="edgeStyle=none;html=1;exitX=0;exitY=0.5;exitDx=0;exitDy=0;dashed=1;entryX=0.97;entryY=0.68;entryDx=0;entryDy=0;entryPerimeter=0;" parent="1" target="39" edge="1">
                    <mxGeometry x="-0.2708" y="-10" relative="1" as="geometry">
                        <mxPoint x="600" y="710" as="targetPoint"/>
                        <mxPoint as="offset"/>
                        <mxPoint x="665" y="730" as="sourcePoint"/>
                    </mxGeometry>
                </mxCell>
                <mxCell id="98" value="&amp;lt;&amp;lt;Extends&amp;gt;&amp;gt;" style="edgeStyle=none;html=1;dashed=1;exitX=0;exitY=0.5;exitDx=0;exitDy=0;entryX=0.95;entryY=0.2;entryDx=0;entryDy=0;entryPerimeter=0;" parent="1" target="39" edge="1">
                    <mxGeometry relative="1" as="geometry">
                        <mxPoint x="670" y="630" as="sourcePoint"/>
                        <mxPoint x="590" y="690" as="targetPoint"/>
                    </mxGeometry>
                </mxCell>
                <mxCell id="103" value="&lt;span style=&quot;color: rgb(0, 0, 0);&quot;&gt;&amp;lt;&amp;lt;Extends&amp;gt;&amp;gt;&lt;/span&gt;" style="edgeStyle=none;html=1;dashed=1;" parent="1" edge="1">
                    <mxGeometry relative="1" as="geometry">
                        <mxPoint x="570" y="700" as="targetPoint"/>
                        <mxPoint x="670" y="830" as="sourcePoint"/>
                    </mxGeometry>
                </mxCell>
            </root>
        </mxGraphModel>
    </diagram>
    <diagram id="XGHgdB_0O8w_LOoQQObq" name="Page-2">
        <mxGraphModel dx="885" dy="779" grid="1" gridSize="10" guides="1" tooltips="1" connect="1" arrows="1" fold="1" page="1" pageScale="1" pageWidth="850" pageHeight="1100" math="0" shadow="0">
            <root>
                <mxCell id="0"/>
                <mxCell id="1" parent="0"/>
            </root>
        </mxGraphModel>
    </diagram>
</mxfile>